<svg xmlns="http://www.w3.org/2000/svg" version="1.1" xmlns:xlink="http://www.w3.org/1999/xlink" xmlns:svgjs="http://svgjs.dev/svgjs" width="2000" height="1151" viewBox="0 0 2000 1151"><g transform="matrix(1,0,0,1,-1.2112696095522324,0.24430327137213226)"><svg viewBox="0 0 396 228" data-background-color="#ffffff" preserveAspectRatio="xMidYMid meet" height="1151" width="2000" xmlns="http://www.w3.org/2000/svg" xmlns:xlink="http://www.w3.org/1999/xlink"><g id="tight-bounds" transform="matrix(1,0,0,1,0.24008861730862918,-0.048170680565633006)"><svg viewBox="0 0 395.52 228.09656437810938" height="228.09656437810938" width="395.52"><g><svg viewBox="0 0 395.52 228.09656437810938" height="228.09656437810938" width="395.52"><g><svg viewBox="0 0 395.52 228.09656437810938" height="228.09656437810938" width="395.52"><g id="textblocktransform"><svg viewBox="0 0 395.52 228.09656437810938" height="228.09656437810938" width="395.52" id="textblock"><g><svg viewBox="0 0 395.52 228.09656437810938" height="228.09656437810938" width="395.52"><path d="M394.594 48.922C392.735 25.246 387.435 18.664 387.435 18.664 371.165-5.723 350.86-0.467 332.619 3.038 300.414 3.18 268.339 8.388 236.208 11.182 168.767 11.608 100.749 4.6 33.643 21.884 27.339 27.187-6.54 22.926 1.121 51.953 3.129 64.028 10.456 77.429 10.232 88.509 11.236 90.451 12.631 86 13.226 88.793 15.309 96.322 18.711 92.771 21.501 97.222 17.614 109.108 20.403 119.004 23.062 129.375 18.377 132.074 12.371 130.795 9.675 139.745 9.396 146.232 7.89 145.001 6.235 144.717 5.026 144.527 2.59 145.238 2.999 147.274 4.394 154.235-1.594 158.26 2.162 165.078-0.422 172.466 3.948 178.858 3.353 186.861 3.278 188.471 3.687 189.844 4.338 190.223 7.22 192.259 3.018 196.237 3.464 200.546 33.029 229.999 65.104 209.637 95.394 223.18 103.259 213.71 97.346 226.542 100.489 224.553 102.943 222.233 104.728 231.846 107.499 226.4 107.927 224.838 107.276 221.144 108.8 221.854 109.6 222.233 110.307 222.138 110.418 219.96 110.586 216.693 109.117 218.729 108.726 217.024 112.947 208.406 111.906 228.91 115.866 228.058 115.68 225.548 114.528 221.949 116.889 222.423 119.232 218.824 119.306 215.841 121.389 223.938 121.463 225.69 121.835 226.921 122.43 227.773 128.938 218.966 135.409 230.899 142.233 226.921 146.417 222.565 150.433 229.289 154.672 227.631 156.16 226.306 157.666 223.938 159.098 227.916 176.632 228.768 195.319 225.216 211.943 228.058 256.364 222.754 303.836 230.236 350.674 223.228 361.719 220.528 373.192 216.693 383.958 213.615 383.958 213.615 392.679 205.186 392.679 167.304S394.538 134.157 394.817 103.994C395.096 73.83 396.398 72.599 394.538 48.922Z" opacity="1" fill="#fe705a" data-fill-palette-color="tertiary"></path><g transform="matrix(1,0,0,1,55.76832,26.230666666666668)"><svg width="283.98335999999995" viewBox="0.7 -32.5 53.599999999999994 33.15" height="175.63523104477605" data-palette-color="#ffffff"><path d="M9.8 0.65L9.8 0.65Q7.35 0.65 5.28-0.08 3.2-0.8 1.95-2.1 0.7-3.4 0.7-5.15L0.7-5.15Q0.7-6.3 1.25-7.18 1.8-8.05 2.75-8.05L2.75-8.05Q3.35-8.05 4-7.6L4-7.6Q5.25-6.5 7.23-5.68 9.2-4.85 11.45-4.85L11.45-4.85Q14.4-4.85 16.28-6.03 18.15-7.2 18.15-9.2L18.15-9.2Q18.15-11.1 16.4-11.95 14.65-12.8 11.55-13.55L11.55-13.55Q9.25-14.1 7.13-14.95 5-15.8 3.63-17.32 2.25-18.85 2.25-21.4L2.25-21.4Q2.25-23.35 3.1-25.28 3.95-27.2 5.6-28.8 7.25-30.4 9.6-31.38 11.95-32.35 14.9-32.35L14.9-32.35Q17.1-32.35 18.93-31.85 20.75-31.35 21.83-30.45 22.9-29.55 22.9-28.25L22.9-28.25Q22.9-27.25 22.35-26.5 21.8-25.75 21.05-25.33 20.3-24.9 19.75-24.9L19.75-24.9Q19.25-24.9 18.4-25.35L18.4-25.35Q17-26.1 15.28-26.53 13.55-26.95 12.25-26.95L12.25-26.95Q9.8-26.95 8.28-25.88 6.75-24.8 6.75-23.35L6.75-23.35Q6.75-21.75 8.68-20.68 10.6-19.6 15.6-18.4L15.6-18.4Q19-17.5 20.9-15.93 22.8-14.35 22.8-10.95L22.8-10.95Q22.8-7.9 21.18-5.25 19.55-2.6 16.63-0.98 13.7 0.65 9.8 0.65ZM50.4 0.55L50.4 0.55Q48.85 0.55 47.77-0.78 46.7-2.1 45.7-5.15L45.7-5.15Q45.2-6.65 44.87-8.08 44.55-9.5 44.4-10.85L44.4-10.85Q43.75-9.85 43.22-9.53 42.7-9.2 41.7-9.2L41.7-9.2Q39.25-9.2 36.5-9.28 33.75-9.35 31.6-9.4L31.6-9.4Q31.5-8.5 31.42-7.58 31.35-6.65 31.35-5.75L31.35-5.75Q31.35-4.95 31.42-4.15 31.5-3.35 31.55-2.6L31.55-2.6Q31.7-1.2 30.45-0.35 29.2 0.5 27.35 0.5L27.35 0.5Q25.75 0.5 25.75-0.9L25.75-0.9Q25.75-1.75 26.2-3.45L26.2-3.45Q26.45-4.6 26.6-5.43 26.75-6.25 26.75-6.75L26.75-6.75Q26.75-8.15 25.9-8.65L25.9-8.65Q25.2-9.05 25.2-9.7L25.2-9.7Q25.2-10.3 25.47-11.15 25.75-12 26.2-12.73 26.65-13.45 27.05-13.75L27.05-13.75Q27.4-13.95 27.9-14.1 28.4-14.25 29.15-14.3L29.15-14.3Q31.1-19.9 33.52-23.98 35.95-28.05 38.7-30.28 41.45-32.5 44.3-32.5L44.3-32.5Q46.05-32.5 46.85-31.33 47.65-30.15 47.65-27.4L47.65-27.4 47.65-25.15Q47.65-20.1 48.4-15.85 49.15-11.6 50.25-8.95L50.25-8.95Q51.35-6.15 53.3-4.35L53.3-4.35Q53.9-3.85 54.1-3.48 54.3-3.1 54.3-2.7L54.3-2.7Q54.3-1.95 53.72-1.2 53.15-0.45 52.25 0.05 51.35 0.55 50.4 0.55ZM33.1-14.6L33.1-14.6Q35.55-14.7 37.4-14.78 39.25-14.85 40.5-14.85L40.5-14.85 44-14.85Q43.9-16.25 43.82-17.8 43.75-19.35 43.75-21.05L43.75-21.05 43.75-23.95Q43.75-25.4 43.42-25.88 43.1-26.35 42.2-26.35L42.2-26.35Q39.75-26.35 37.3-23.15 34.85-19.95 33.1-14.6Z" opacity="1" transform="matrix(1,0,0,1,0,0)" fill="#ffffff" class="wordmark-text-0" data-fill-palette-color="quaternary" id="text-0"></path></svg></g></svg></g></svg></g></svg></g><g></g></svg></g><defs></defs></svg><rect width="395.52" height="228.09656437810938" fill="none" stroke="none" visibility="hidden"></rect></g></svg></g></svg>